<?xml version="1.0" encoding="UTF-8" standalone="no"?>
<!-- Created with Inkscape (http://www.inkscape.org/) -->

<svg
   xmlns:dc="http://purl.org/dc/elements/1.1/"
   xmlns:cc="http://creativecommons.org/ns#"
   xmlns:rdf="http://www.w3.org/1999/02/22-rdf-syntax-ns#"
   xmlns:svg="http://www.w3.org/2000/svg"
   xmlns="http://www.w3.org/2000/svg"
   xmlns:sodipodi="http://sodipodi.sourceforge.net/DTD/sodipodi-0.dtd"
   xmlns:inkscape="http://www.inkscape.org/namespaces/inkscape"
   width="54.272568mm"
   height="116.27566mm"
   viewBox="0 0 192.30437 412.00036"
   id="svg4208"
   version="1.1"
   inkscape:version="0.91 r13725"
   sodipodi:docname="facebook_icon.svg">
  <defs
     id="defs4210" />
  <sodipodi:namedview
     id="base"
     pagecolor="#ffffff"
     bordercolor="#666666"
     borderopacity="1.0"
     inkscape:pageopacity="0.0"
     inkscape:pageshadow="2"
     inkscape:zoom="0.35"
     inkscape:cx="102.58076"
     inkscape:cy="-42.571255"
     inkscape:document-units="px"
     inkscape:current-layer="layer1"
     showgrid="false"
     inkscape:window-width="1366"
     inkscape:window-height="705"
     inkscape:window-x="-8"
     inkscape:window-y="-8"
     inkscape:window-maximized="1"
     fit-margin-top="0"
     fit-margin-left="0"
     fit-margin-right="0"
     fit-margin-bottom="0" />
  <metadata
     id="metadata4213">
    <rdf:RDF>
      <cc:Work
         rdf:about="">
        <dc:format>image/svg+xml</dc:format>
        <dc:type
           rdf:resource="http://purl.org/dc/dcmitype/StillImage" />
        <dc:title></dc:title>
      </cc:Work>
    </rdf:RDF>
  </metadata>
  <g
     inkscape:label="Layer 1"
     inkscape:groupmode="layer"
     id="layer1"
     transform="translate(-272.41924,-77.790601)">
    <path
       id="path4176"
       d="m 335.79124,99.016952 c 16.066,-15.298 38.918,-20.465001 60.475,-21.109001 22.799,-0.205 45.589,-0.081 68.388,-0.072 0.09,24.050999 0.098,48.110999 -0.009,72.160999 -14.734,-0.026 -29.478,0.036 -44.212,-0.026 -9.343,-0.582 -18.937,6.5 -20.635,15.762 -0.224,16.093 -0.081,32.195 -0.072,48.289 21.61,0.089 43.22,-0.027 64.829,0.054 -1.582,23.281 -4.47,46.456 -7.858,69.541 -19.088,0.179 -38.187,-0.018 -57.274,0.099 -0.17,68.665 0.089,137.33 -0.134,205.995 -28.352,0.116 -56.721,-0.054 -85.072,0.08 -0.537,-68.674 0.044,-137.383 -0.295,-206.066 -13.832,-0.144 -27.672,0.099 -41.503,-0.116 0.053,-23.085 0.018,-46.169 0.026,-69.246 13.822,-0.169 27.654,0.036 41.477,-0.098 0.42,-22.442 -0.421,-44.91 0.438,-67.333 1.386,-17.758 8.154,-35.649 21.431,-47.914998 z"
       inkscape:connector-curvature="0"
       style="fill:#ffffff" />
  </g>
</svg>
